<svg width="72" height="84" viewBox="0 0 72 84" fill="none" xmlns="http://www.w3.org/2000/svg">
<path d="M42.3333 48.2502V25.3335C42.3333 20.9132 40.5773 16.674 37.4517 13.5484C34.3261 10.4228 30.0869 8.66683 25.6666 8.66683C21.2463 8.66683 17.0071 10.4228 13.8815 13.5484C10.7559 16.674 8.99996 20.9132 8.99996 25.3335V48.2502C8.99996 55.4331 11.8534 62.3219 16.9325 67.401C22.0116 72.4801 28.9003 75.3335 36.0833 75.3335C43.2662 75.3335 50.155 72.4801 55.2341 67.401C60.3132 62.3219 63.1666 55.4331 63.1666 48.2502V8.66683H71.5V48.2502C71.5 57.6432 67.7686 66.6516 61.1267 73.2935C54.4847 79.9354 45.4764 83.6668 36.0833 83.6668C26.6902 83.6668 17.6818 79.9354 11.0399 73.2935C4.39801 66.6516 0.666626 57.6432 0.666626 48.2502V25.3335C0.666626 18.7031 3.30055 12.3442 7.98896 7.65583C12.6774 2.96742 19.0362 0.333496 25.6666 0.333496C32.297 0.333496 38.6559 2.96742 43.3443 7.65583C48.0327 12.3442 50.6666 18.7031 50.6666 25.3335V48.2502C50.6666 52.1179 49.1302 55.8272 46.3953 58.5621C43.6604 61.297 39.951 62.8335 36.0833 62.8335C32.2156 62.8335 28.5062 61.297 25.7713 58.5621C23.0364 55.8272 21.5 52.1179 21.5 48.2502V25.3335H29.8333V48.2502C29.8333 49.9078 30.4918 51.4975 31.6639 52.6696C32.836 53.8417 34.4257 54.5002 36.0833 54.5002C37.7409 54.5002 39.3306 53.8417 40.5027 52.6696C41.6748 51.4975 42.3333 49.9078 42.3333 48.2502Z" fill="black"/>
</svg>
