<svg width="84" height="75" viewBox="0 0 84 75" fill="none" xmlns="http://www.w3.org/2000/svg">
<path d="M0 4.1375C0.00762519 3.04324 0.445418 1.99591 1.2188 1.22174C1.99219 0.447575 3.03908 0.00872771 4.13333 0H79.2C81.4833 0 83.3333 1.85417 83.3333 4.1375V70.8625C83.3257 71.9568 82.8879 73.0041 82.1145 73.7783C81.3411 74.5524 80.2943 74.9913 79.2 75H4.13333C3.03672 74.9989 1.9854 74.5625 1.21037 73.7867C0.435342 73.0109 -5.56063e-07 71.9591 0 70.8625V4.1375ZM37.5 8.33333H8.33333V66.6667H37.5V8.33333ZM45.8333 8.33333V66.6667H75V8.33333H45.8333ZM50 16.6667H70.8333V25H50V16.6667ZM50 29.1667H70.8333V37.5H50V29.1667Z" fill="black"/>
</svg>
