<svg width="84" height="76" viewBox="0 0 84 76" fill="none" xmlns="http://www.w3.org/2000/svg">
<path d="M4.50004 0.5H79.5C80.6051 0.5 81.6649 0.938987 82.4463 1.72039C83.2277 2.50179 83.6667 3.5616 83.6667 4.66667V71.3333C83.6667 72.4384 83.2277 73.4982 82.4463 74.2796C81.6649 75.061 80.6051 75.5 79.5 75.5H4.50004C3.39497 75.5 2.33516 75.061 1.55376 74.2796C0.772361 73.4982 0.333374 72.4384 0.333374 71.3333V4.66667C0.333374 3.5616 0.772361 2.50179 1.55376 1.72039C2.33516 0.938987 3.39497 0.5 4.50004 0.5ZM8.66671 8.83333V67.1667H75.3334V8.83333H8.66671ZM21.1667 42.1667H29.5V58.8333H21.1667V42.1667ZM37.8334 17.1667H46.1667V58.8333H37.8334V17.1667ZM54.5 29.6667H62.8334V58.8333H54.5V29.6667Z" fill="black"/>
</svg>
