<svg width="376" height="295" viewBox="0 0 376 295" fill="none" xmlns="http://www.w3.org/2000/svg">
<path d="M254.491 0.395577C240.603 3.39252 234.156 6.05649 229.857 10.4964C227.047 13.4378 226.33 15.1028 225.834 20.0977C225.614 22.2066 225.173 24.0381 224.842 24.1491C224.512 24.2601 224.402 24.7041 224.567 25.1481C224.732 25.5921 224.622 25.9251 224.291 25.9251C223.96 25.9251 223.85 26.4801 224.071 27.1461C224.291 28.034 224.181 28.2005 223.63 27.8675C223.134 27.59 223.024 27.6456 223.299 28.034C223.685 28.7555 222.087 35.3599 221.48 35.3599C221.315 35.3599 221.095 36.1369 221.095 37.1358C221.04 38.1348 220.764 39.0228 220.434 39.1338C220.103 39.2448 219.938 39.6333 220.103 40.0218C220.213 40.3548 219.938 41.6868 219.442 42.9077C218.89 44.0732 218.45 45.2942 218.339 45.6272C218.009 47.4586 216.245 52.953 215.915 53.397C215.749 53.6745 215.088 55.4503 214.537 57.282C213.986 59.1132 213.38 60.8891 213.104 61.1668C212.884 61.4997 212.443 62.9985 212.223 64.4968C211.837 66.9385 211.561 67.272 210.404 67.3272C209.632 67.3829 207.869 66.8276 206.436 66.106C204.948 65.385 203.625 64.7187 203.405 64.7187C203.129 64.6635 202.358 64.3858 201.587 64.0529C200.815 63.7753 199.878 63.4424 199.437 63.3314C198.996 63.2757 198.5 62.9428 198.335 62.6099C198.17 62.3322 196.737 61.4445 195.249 60.612C189.848 57.7816 180.204 50.6776 175.465 46.0712C174.308 44.9612 172.654 43.6292 171.773 43.1852C170.946 42.6857 168.521 41.1318 166.482 39.7443C161.578 36.3589 156.232 33.6949 149.784 31.475C145.376 29.921 143.832 29.6435 139.81 29.699C131.764 29.7545 127.355 31.697 124.379 36.3589C123.112 38.3568 122.781 39.5778 122.781 41.9643C122.726 44.9057 121.734 47.4586 120.907 46.6262C120.687 46.4042 120.687 46.6262 120.907 47.1812C121.073 47.6807 121.073 48.5686 120.797 49.0681C120.577 49.6231 120.356 50.1781 120.301 50.3446C120.246 50.5111 120.081 51.0106 119.86 51.4546C119.695 51.8986 119.144 53.7855 118.648 55.617C118.152 57.4482 117.546 59.1689 117.27 59.5018C117.05 59.7795 116.554 61.4445 116.168 63.1095C115.782 64.7745 115.011 67.0495 114.515 68.1045C113.964 69.1589 113.082 71.6006 112.586 73.4875C111.925 75.7631 111.263 77.0395 110.657 77.2614C109.61 77.5948 102.997 76.5956 100.903 75.8189C100.187 75.5412 98.423 74.3758 96.8803 73.1546C95.337 71.9335 93.5734 70.7681 92.8571 70.5462C92.196 70.3795 90.5976 69.3251 89.2753 68.2706C87.9524 67.2162 84.6461 65.1626 81.8356 63.7753C77.8125 61.8326 75.8835 61.1668 72.6323 60.8339C69.0505 60.501 60.6736 61.0559 60.0125 61.7774C59.6819 62.1103 63.9805 66.8833 64.6968 66.9385C65.0274 66.9943 66.2946 68.0487 67.5623 69.3251C68.7745 70.6572 71.1442 72.9879 72.7425 74.542C76.159 77.8167 78.5838 80.5914 79.8516 82.534C80.3475 83.3108 81.3943 84.6429 82.1662 85.5311C82.9376 86.4746 83.4885 87.3623 83.3232 87.5842C83.213 87.8061 83.4885 88.0838 83.9293 88.3057C84.3706 88.4725 84.7563 88.9721 84.7563 89.4711C84.7563 89.9155 85.0869 90.2484 85.4725 90.1927C85.8031 90.0817 86.0786 90.4703 86.0786 91.0252C86.0235 91.5805 86.0786 91.9134 86.1888 91.8024C86.3541 91.6357 87.8973 93.023 89.6059 94.8547C92.8571 98.3509 96.2737 100.848 97.7067 100.848C98.1475 100.848 98.5332 101.126 98.5332 101.459C98.5332 101.737 98.8086 101.848 99.0847 101.681C99.4153 101.515 99.6356 101.57 99.6356 101.903C99.6356 102.236 100.021 102.347 100.462 102.18C100.903 101.959 101.73 102.014 102.281 102.236C102.777 102.513 103.658 102.624 104.21 102.569C104.706 102.513 105.146 102.624 105.146 102.902C105.146 103.124 105.918 103.346 106.8 103.346C107.736 103.346 108.453 103.18 108.453 103.013C108.453 102.791 109.555 102.458 110.878 102.291C112.2 102.07 113.633 101.57 113.963 101.126C114.35 100.682 114.901 100.46 115.231 100.682C115.507 100.848 115.672 100.793 115.562 100.515C115.231 99.8497 120.411 94.799 120.907 95.2434C121.128 95.4096 121.128 95.2986 120.907 94.91C120.687 94.5219 120.962 93.7446 121.514 93.1898C122.065 92.6349 122.561 91.8024 122.671 91.358C122.781 90.9142 123.112 90.3036 123.497 90.0265C123.883 89.6931 124.214 89.083 124.324 88.6386C124.435 88.1948 124.71 87.6952 124.875 87.529C125.096 87.3623 125.316 86.8627 125.371 86.4188C125.481 85.3086 127.08 80.8133 127.741 79.6479C128.071 79.0931 128.292 77.8719 128.292 76.9842C128.292 76.0408 128.512 75.3745 128.788 75.5412C129.009 75.7074 129.119 75.2083 128.953 74.4867C128.843 73.6543 128.953 73.0989 129.339 73.0989C129.725 73.0989 129.89 72.877 129.67 72.5998C129.505 72.2664 129.89 71.7673 130.551 71.4344C131.488 70.9348 131.654 70.9348 131.323 71.4344C131.047 71.8783 131.213 71.9893 131.929 71.7673C134.299 71.0458 143.502 76.6514 148.021 81.7015C151.382 85.3644 153.311 89.3049 156.728 99.2949C159.704 107.897 162.294 113.281 164.774 116.166C166.482 118.109 171.332 122.382 173.922 124.158C174.583 124.602 175.134 125.268 175.134 125.657C175.134 127.876 166.262 134.758 160.916 136.701C157.72 137.866 151.437 137.644 147.745 136.312C143.392 134.703 129.505 128.543 123.497 125.601C113.302 120.551 105.477 118.053 99.9662 118.053C95.2819 118.053 93.353 118.886 90.1568 122.327C87.2362 125.546 86.1888 128.376 86.1337 133.371C86.1337 135.203 85.8031 137.145 85.4725 137.589C85.0869 138.033 84.9216 138.588 85.142 138.755C85.3072 138.976 85.1971 139.143 84.8665 139.143C84.4808 139.143 84.2604 139.309 84.3155 139.531C84.3706 139.809 84.04 140.697 83.5436 141.64C83.1028 142.528 82.056 145.914 81.229 149.133C79.8516 154.516 77.7574 160.898 76.3243 164.007C75.7734 165.172 75.4428 165.283 73.1833 164.95C69.5464 164.506 69.1607 164.395 67.8378 163.673C67.1216 163.285 66.5706 163.174 66.5706 163.396C66.5706 163.618 66.3497 163.562 66.1293 163.174C65.9089 162.841 65.0825 162.397 64.256 162.231C63.4841 162.12 62.0516 161.62 61.1144 161.12C60.1777 160.621 59.4064 160.344 59.4064 160.51C59.4064 160.732 59.0207 160.455 58.5243 160.01C58.0835 159.511 57.4224 159.233 57.1469 159.4C56.8714 159.622 56.651 159.511 56.651 159.233C56.651 158.956 54.9976 158.012 52.9585 157.18C50.8642 156.292 48.8251 155.293 48.3292 154.849C47.8885 154.46 47.2824 154.128 47.0621 154.128C46.7866 154.128 43.5899 152.407 39.8979 150.243C31.3006 145.248 27.9391 144.082 21.9325 143.971C17.9094 143.86 16.9727 144.027 15.2091 145.137C13.0598 146.469 8.15512 151.63 8.15512 152.574C8.15512 152.851 7.65924 153.795 7.10827 154.571C6.5573 155.404 4.68348 159.566 3.03004 163.84C0.0542772 171.498 -0.221217 173.552 1.98319 172.054C7.05317 168.557 12.8394 166.504 16.1457 167.114C19.0119 167.669 22.8692 170.555 29.8681 177.437C38.6852 185.984 38.9056 186.206 39.1265 185.984C39.2367 185.873 40.5039 186.872 41.937 188.204C43.3695 189.48 44.6372 190.424 44.8025 190.313C44.9678 190.146 45.078 190.313 45.078 190.702C45.078 191.09 45.3535 191.201 45.629 191.034C45.9596 190.868 46.1799 191.09 46.1799 191.534C46.1799 191.978 46.456 192.533 46.8417 192.755C47.2273 193.032 47.3375 192.866 47.0621 192.366C46.8417 191.922 47.1722 192.2 47.7783 192.921C48.4395 193.643 48.9359 194.031 48.9359 193.865C48.9359 193.31 51.8565 195.308 52.8483 196.529C53.3441 197.139 54.1711 197.694 54.6119 197.75C55.1078 197.805 56.2648 198.415 57.202 199.082C58.0835 199.748 58.8549 200.08 58.8549 199.859C58.8549 199.692 59.186 199.803 59.5717 200.136C60.0125 200.469 60.5083 200.58 60.6736 200.358C60.894 200.191 61.0593 200.247 61.0593 200.58C61.0593 200.913 61.9414 201.357 62.9882 201.523C64.0356 201.745 64.9172 202.079 64.9172 202.301C64.9172 202.578 65.8538 202.8 66.9563 202.856C68.1133 202.967 69.1607 203.188 69.326 203.466C69.6015 203.855 74.9469 203.799 77.3166 203.355C78.4185 203.133 83.6538 200.802 83.0478 200.747C82.8825 200.747 83.7089 199.692 84.8665 198.415C87.0158 196.085 90.6527 189.813 90.4323 188.981C90.3221 188.759 90.5425 188.537 90.8731 188.537C91.1486 188.537 91.3139 188.315 91.0935 188.037C90.9282 187.704 91.1486 187.149 91.5348 186.761C91.9756 186.372 92.196 185.651 92.0307 185.096C91.9205 184.541 92.1409 183.986 92.6367 183.764C93.1326 183.597 93.353 183.098 93.1877 182.654C93.0224 182.21 93.1326 181.877 93.4632 181.877C93.7938 181.877 93.904 181.377 93.7387 180.767C93.5734 180.101 93.7387 179.657 94.0698 179.657C94.4555 179.657 94.6208 179.435 94.4555 179.213C94.2902 178.936 94.7309 178.047 95.3921 177.215L96.6048 175.661L100.462 177.715C102.611 178.825 104.926 180.323 105.752 181.1C106.524 181.821 107.461 182.432 107.902 182.432C108.838 182.432 121.679 195.141 124.655 199.137C125.977 200.802 127.465 202.8 128.071 203.577C130.882 207.184 146.202 221.891 146.699 221.448C146.864 221.226 147.029 221.392 147.029 221.725C147.029 222.114 147.415 222.391 147.856 222.391C148.241 222.391 148.902 222.835 149.178 223.335C149.509 223.89 149.784 224.056 149.784 223.778C149.784 223.446 150.005 223.556 150.28 223.945C150.501 224.334 151.052 224.722 151.492 224.778C151.934 224.889 152.65 225.166 153.091 225.443C153.532 225.721 154.303 225.999 154.744 226.11C155.185 226.165 156.011 226.443 156.673 226.72C159.924 228.219 161.137 228.662 161.743 228.551C162.074 228.496 162.515 228.718 162.735 229.051C162.9 229.329 163.672 229.44 164.443 229.273C165.16 229.107 165.766 229.162 165.766 229.384C165.766 229.662 167.144 229.884 168.797 229.884C170.45 229.884 171.828 229.662 171.828 229.384C171.828 229.162 172.434 229.051 173.205 229.162C173.977 229.329 174.583 229.218 174.583 228.995C174.583 228.718 174.914 228.496 175.355 228.496C176.291 228.496 181.803 223.168 181.306 222.724C181.141 222.558 181.306 222.391 181.692 222.391C182.078 222.391 182.188 222.114 182.023 221.836C181.858 221.503 181.968 221.281 182.299 221.281C182.629 221.281 182.794 221.059 182.629 220.782C182.243 220.227 184.393 215.01 185.109 214.732C185.329 214.622 185.44 214.233 185.274 213.844C185.109 213.4 185.495 211.957 186.156 210.57C187.093 208.572 187.589 208.128 188.526 208.239C189.187 208.35 191.116 208.683 192.769 209.016C194.423 209.294 197.564 209.848 199.658 210.181C206.105 211.292 213.875 213.012 216.245 213.844C220.213 215.232 226.055 216.786 226.495 216.508C226.771 216.342 227.873 216.73 229.031 217.341C230.133 217.951 234.156 219.894 237.958 221.725C247.657 226.387 255.428 231.16 262.041 236.654C267.001 240.761 275.377 249.253 275.873 250.695C275.983 250.973 274.936 251.639 273.558 252.249C270.638 253.582 269.701 255.136 270.087 257.966C270.307 259.742 270.142 260.241 268.764 261.574C266.89 263.35 266.615 266.013 268.047 268.178C269.095 269.787 268.819 271.841 267.221 275.393C266.67 276.614 265.678 279 265.072 280.665C264.41 282.33 262.592 287.214 260.938 291.487C259.285 295.761 257.301 301.144 256.474 303.42C255.648 305.695 254.491 308.692 253.939 310.08C253.333 311.467 251.736 315.574 250.302 319.237C248.925 322.9 247.327 326.951 246.721 328.227C246.169 329.559 245.673 330.781 245.673 331.058C245.673 331.28 244.186 335.22 242.312 339.827C224.071 384.892 224.842 382.839 225.834 384.67C226.165 385.391 227.102 386.28 227.763 386.557C229.361 387.278 238.95 387.556 239.612 386.89C240.052 386.391 241.099 383.726 242.642 379.176C243.028 377.955 244.406 374.07 245.673 370.573C246.941 367.077 249.145 360.806 250.633 356.698C252.066 352.592 253.388 348.818 253.554 348.374C254.822 344.822 256.419 340.215 257.577 336.719C258.348 334.443 259.175 332.057 259.451 331.446C260.332 329.449 266.063 313.632 266.063 313.243C266.063 312.965 268.378 306.528 271.244 298.813C274.11 291.099 277.028 282.996 277.801 280.776C279.508 275.836 280.615 274.005 281.992 274.005C282.597 274.005 283.861 273.228 284.801 272.285C286.287 270.786 286.508 270.176 286.4 268.178C286.287 266.18 286.508 265.458 287.999 263.793C290.143 261.352 290.203 260.241 288.382 257.133C287.172 255.025 287.059 254.525 287.61 253.138C287.939 252.249 288.274 251.14 288.328 250.695C288.382 250.252 288.825 249.03 289.376 248.032C289.927 247.088 290.203 246.256 289.981 246.256C289.76 246.256 289.927 245.923 290.257 245.534C290.586 245.09 290.7 244.646 290.532 244.48C290.365 244.313 290.754 243.314 291.359 242.204C291.964 241.15 292.293 240.151 292.185 239.984C292.018 239.818 292.407 238.652 292.958 237.32C293.563 235.989 294.773 232.881 295.604 230.438C296.431 227.997 297.419 225.832 297.695 225.61C298.024 225.388 298.138 225.166 297.862 225.166C297.641 225.166 297.808 224.611 298.3 223.89C298.743 223.168 298.964 222.391 298.743 222.169C298.521 221.947 298.635 221.559 299.018 221.337C299.402 221.115 299.791 220.393 299.899 219.783C300.396 217.23 301.552 214.066 301.995 214.066C302.216 214.066 302.378 213.9 302.378 213.622C302.324 213.4 302.378 213.067 302.437 212.79C302.491 212.568 302.654 212.124 302.713 211.846C302.767 211.513 302.929 211.181 302.988 211.014C303.042 210.848 303.151 210.57 303.205 210.292C303.372 209.127 305.468 204.632 305.851 204.632C306.073 204.632 306.127 204.243 305.965 203.799C305.743 203.355 305.851 202.967 306.127 202.967C306.402 202.967 306.678 202.301 306.732 201.523C306.791 200.747 307.396 198.915 308.109 197.528C308.828 196.085 309.325 194.586 309.157 194.198C309.049 193.865 309.157 193.532 309.433 193.532C309.708 193.532 309.93 193.088 309.984 192.533C310.038 192.033 310.48 190.646 310.923 189.536C311.42 188.37 311.858 187.261 311.858 187.038C311.912 186.761 312.187 186.095 312.522 185.485C312.852 184.874 313.181 184.097 313.235 183.82C313.565 182.155 313.786 181.544 314.451 180.878C314.834 180.434 315.002 179.879 314.834 179.601C314.613 179.324 314.726 179.102 315.002 179.102C315.331 179.102 315.439 178.603 315.277 177.992C315.11 177.326 315.277 176.882 315.607 176.882C315.99 176.882 316.104 176.604 315.936 176.327C315.774 175.994 315.882 175.772 316.158 175.772C316.487 175.772 316.709 175.606 316.655 175.328C316.601 175.106 316.817 174.385 317.206 173.774C317.535 173.108 317.702 172.442 317.535 172.331C317.152 171.887 318.47 169.112 319.08 169.112C319.355 169.112 319.409 168.835 319.242 168.557C319.08 168.224 319.08 167.669 319.355 167.281C319.571 166.948 319.793 166.282 319.906 165.838C319.96 165.394 320.344 164.839 320.733 164.617C321.116 164.339 321.23 164.117 320.895 164.117C320.619 164.117 320.679 163.84 321.008 163.507C321.338 163.174 321.505 162.508 321.338 162.12C321.17 161.675 321.338 161.342 321.667 161.342C321.997 161.342 322.218 161.176 322.218 160.898C322.056 159.955 322.991 156.903 323.488 156.903C323.763 156.903 323.871 156.68 323.65 156.403C323.488 156.125 323.596 155.737 323.925 155.515C324.26 155.293 324.368 154.904 324.201 154.627C323.985 154.349 324.147 154.128 324.476 154.128C324.811 154.128 324.919 153.85 324.752 153.573C324.59 153.239 324.644 153.017 324.919 153.017C325.195 153.017 325.416 152.684 325.47 152.296C325.583 150.631 326.188 148.855 326.685 148.689C327.015 148.578 327.123 148.245 326.902 147.967C326.739 147.69 326.847 147.468 327.069 147.468C327.344 147.468 327.566 147.024 327.62 146.469C327.787 144.637 328.117 143.527 328.943 142.584C329.381 142.085 329.656 141.085 329.548 140.475C329.44 139.809 329.716 138.921 330.153 138.533C330.542 138.088 330.926 137.533 330.926 137.311C330.98 137.09 331.147 136.312 331.369 135.646C331.59 134.981 331.752 134.259 331.698 133.981C331.644 133.76 331.92 133.593 332.249 133.593C332.525 133.593 332.633 133.316 332.471 133.038C332.303 132.705 332.417 132.483 332.746 132.483C333.076 132.483 333.243 132.261 333.022 131.984C332.854 131.706 332.968 131.317 333.297 131.095C333.627 130.873 333.735 130.541 333.573 130.263C333.405 129.986 333.518 129.652 333.794 129.486C334.069 129.319 334.177 128.654 334.01 128.043C333.848 127.377 334.01 126.933 334.345 126.933C334.728 126.933 334.836 126.656 334.674 126.378C334.507 126.045 334.62 125.823 335.004 125.823C335.393 125.823 335.501 125.657 335.333 125.435C335.112 125.268 335.171 124.824 335.447 124.491C335.776 124.103 336.106 123.104 336.273 122.216C336.435 121.272 336.824 120.495 337.154 120.384C337.429 120.273 337.705 119.496 337.705 118.608C337.705 117.72 337.98 116.943 338.256 116.833C338.585 116.722 338.915 116.055 339.082 115.334C339.19 114.668 339.579 113.724 339.855 113.392C340.184 113.003 340.514 112.17 340.627 111.505C340.735 110.838 340.957 110.117 341.178 109.951C341.399 109.728 341.561 109.007 341.561 108.341C341.561 107.675 341.729 106.954 341.95 106.732C342.167 106.565 342.388 105.843 342.501 105.178C342.609 104.512 342.885 103.79 343.106 103.624C343.657 103.291 344.538 101.293 344.43 100.682C344.37 100.46 344.538 100.294 344.867 100.294C345.143 100.294 345.256 99.9607 345.089 99.5168C344.921 99.0724 345.089 98.5734 345.364 98.3509C345.694 98.1847 345.861 97.7409 345.694 97.4632C345.478 97.1855 345.586 96.9636 345.915 96.9636C346.245 96.9636 346.358 96.5749 346.137 96.0759C345.969 95.5763 346.137 95.0215 346.466 94.7438C346.855 94.5219 347.185 93.9665 347.293 93.5226C347.347 93.023 347.682 92.2463 348.065 91.8024C348.449 91.358 348.724 90.748 348.67 90.5256C348.395 89.5821 349.993 85.3087 350.544 85.3087C350.874 85.3087 350.933 85.1425 350.766 84.9758C350.598 84.7538 350.712 84.0881 351.041 83.4217C351.425 82.8117 351.76 81.8125 351.868 81.2577C351.976 80.7023 352.473 79.4817 352.97 78.4825C353.467 77.4833 353.964 76.2069 354.072 75.5964C354.18 75.0416 354.455 74.3758 354.677 74.2091C354.898 74.0429 355.174 73.4323 355.228 72.8218C355.341 72.2112 355.617 71.6006 355.779 71.4344C356.276 71.101 356.605 69.7695 356.551 68.4926C356.551 67.9935 356.773 67.5491 357.048 67.5491C357.378 67.5491 357.491 67.3272 357.27 67.0495C357.102 66.7724 357.215 66.3837 357.545 66.1618C357.82 65.9951 358.096 65.3293 358.096 64.7745C358.096 64.1639 358.593 62.8318 359.198 61.7216C359.803 60.6672 360.246 59.6685 360.246 59.5018C360.132 58.5584 361.018 55.8947 361.456 55.8947C361.731 55.8947 361.899 55.728 361.845 55.4503C361.731 54.7845 362.612 52.0096 363.001 52.0096C363.222 52.0096 363.384 51.5101 363.438 50.8441C363.552 49.2901 365.204 46.9037 365.809 47.2921C366.139 47.5142 366.36 47.3477 366.36 47.0701C366.36 46.7371 367.079 46.4597 367.959 46.4597C369.061 46.4597 369.942 45.9602 370.714 45.0167C371.762 43.6847 371.762 43.4627 370.99 41.5758C370.109 39.4668 370.271 38.1348 371.433 38.1348C372.205 38.1348 374.409 35.5264 374.295 34.7494C374.241 34.4719 374.187 33.8059 374.187 33.2509C374.133 32.7514 373.469 31.6415 372.697 30.809C370.882 28.8665 370.936 28.478 373.194 27.1461L375.068 26.0361V21.3742C375.068 18.8767 374.792 16.4347 374.517 16.1018C374.187 15.7133 374.074 14.8808 374.241 14.2703C374.409 13.6598 374.296 12.9938 373.966 12.8273C373.691 12.6609 373.523 11.9949 373.69 11.4399C374.296 9.21992 372.038 10.4964 367.792 14.7698L363.438 19.1542L363.552 22.5396C363.606 25.4256 363.498 25.9251 362.45 26.4801C361.845 26.8685 360.851 27.035 360.354 26.8685C358.755 26.4801 356.773 29.477 356.773 32.363C356.719 34.3609 356.443 35.0824 355.341 35.9149C354.347 36.6919 353.964 37.5243 353.904 39.1893C353.85 40.4658 354.072 41.4648 354.347 41.4648C354.623 41.4648 354.677 41.6868 354.515 42.0197C354.347 42.2973 354.401 42.5747 354.731 42.5747C355.282 42.5747 355.228 45.1277 354.623 45.7382C354.401 45.9047 353.688 45.6272 353.024 45.0167C352.251 44.3507 351.976 44.2397 352.311 44.7947C352.527 45.2387 351.371 44.2397 349.772 42.5747C348.119 40.9098 346.634 39.5778 346.412 39.6888C346.191 39.7443 345.586 39.1893 345.089 38.4123C344.592 37.6353 343.879 37.0248 343.436 37.0248C343.052 37.0248 342.28 36.4144 341.783 35.6374C341.286 34.8604 340.573 34.2499 340.238 34.2499C339.909 34.2499 339.19 33.8059 338.699 33.2509C336.657 31.1975 335.668 30.365 335.058 30.365C334.728 30.365 334.123 29.921 333.735 29.3105C333.351 28.7555 332.854 28.3115 332.633 28.367C332.417 28.367 331.752 28.034 331.201 27.5345C330.65 27.0905 329.77 26.5356 329.273 26.3136C328.776 26.1471 328.338 25.7031 328.338 25.3701C328.338 25.0926 327.949 24.8151 327.512 24.8151C327.123 24.8151 326.518 24.4821 326.297 24.0936C326.075 23.7051 325.027 23.0391 324.093 22.6506C323.099 22.2622 322.44 21.7071 322.607 21.4297C322.769 21.1522 322.494 20.9302 322.056 20.9302C321.559 20.9302 321.17 20.7082 321.17 20.4307C321.17 20.1532 320.457 19.7647 319.571 19.5427C318.745 19.3762 317.481 18.7102 316.876 18.1552C316.212 17.5448 315.439 17.0453 315.11 17.0453C314.834 17.0453 314.559 16.7677 314.559 16.4347C314.559 16.1573 314.337 16.0463 314.008 16.2128C313.732 16.3793 313.457 16.2683 313.457 15.9353C313.457 15.6023 313.235 15.4913 312.906 15.6578C312.63 15.8243 312.355 15.7133 312.355 15.3803C312.355 15.0473 312.133 14.8808 311.858 15.1028C311.528 15.2693 311.145 15.1028 310.869 14.7143C310.318 13.7708 308.223 12.6053 307.175 12.6053C306.732 12.6053 306.019 12.2723 305.63 11.8838C304.306 10.4964 296.539 7.11096 291.58 5.66795C288.933 4.89099 285.736 3.83651 284.526 3.39252C278.519 0.950567 260.222 -0.825398 254.491 0.395577Z" fill="#0D0E10"/>
</svg>
