<svg width="84" height="76" viewBox="0 0 84 76" fill="none" xmlns="http://www.w3.org/2000/svg">
<path d="M4.50004 0.5H79.5C80.6051 0.5 81.6649 0.938987 82.4463 1.72039C83.2277 2.50179 83.6667 3.5616 83.6667 4.66667V71.3333C83.6667 72.4384 83.2277 73.4982 82.4463 74.2796C81.6649 75.061 80.6051 75.5 79.5 75.5H4.50004C3.39497 75.5 2.33516 75.061 1.55376 74.2796C0.772361 73.4982 0.333374 72.4384 0.333374 71.3333V4.66667C0.333374 3.5616 0.772361 2.50179 1.55376 1.72039C2.33516 0.938987 3.39497 0.5 4.50004 0.5ZM8.66671 8.83333V67.1667H75.3334V8.83333H8.66671ZM75.3334 38L60.6 52.7333L54.7084 46.8375L63.55 38L54.7084 29.1625L60.6 23.2667L75.3334 38ZM20.45 38L29.2917 46.8375L23.4 52.7333L8.66671 38L23.4 23.2667L29.2917 29.1667L20.45 38ZM38.85 58.8333H29.9834L45.15 17.1667H54.0167L38.85 58.8333Z" fill="black"/>
</svg>
