<svg width="25" height="33" viewBox="0 0 25 33" fill="none" xmlns="http://www.w3.org/2000/svg">
<path d="M14.3706 30.7897L13.1319 32.4673C12.6074 33.1776 11.7593 33.1776 11.2404 32.4673L0.393371 17.7846C-0.131124 17.0743 -0.131124 15.9257 0.393371 15.2229L11.2404 0.532746C11.7649 -0.177582 12.613 -0.177582 13.1319 0.532746L14.3706 2.21033C14.9007 2.92821 14.8895 4.0995 14.3483 4.80227L7.62471 13.4773H23.6609C24.403 13.4773 25 14.2859 25 15.2909V17.7091C25 18.7141 24.403 19.5227 23.6609 19.5227H7.62471L14.3483 28.1977C14.8951 28.9005 14.9063 30.0718 14.3706 30.7897Z" fill="black"/>
</svg>
