<svg width="80" height="80" viewBox="0 0 80 80" fill="none" xmlns="http://www.w3.org/2000/svg">
<path d="M19.3748 48.8374L10.5415 57.6791L22.3248 69.4624L69.4623 22.3208L57.679 10.5416L48.8332 19.3749L54.729 25.2666L48.8332 31.1666L42.9415 25.2708L37.0498 31.1666L42.9415 37.0583L37.0498 42.9499L31.1582 37.0583L25.2623 42.9499L31.1582 48.8416L25.2623 54.7374L19.3748 48.8333V48.8374ZM60.6248 1.69994L78.2998 19.3749C79.0809 20.1563 79.5198 21.2159 79.5198 22.3208C79.5198 23.4256 79.0809 24.4852 78.2998 25.2666L25.2665 78.2999C24.4851 79.0811 23.4255 79.5199 22.3207 79.5199C21.2158 79.5199 20.1562 79.0811 19.3748 78.2999L1.69983 60.6249C0.918698 59.8436 0.479883 58.784 0.479883 57.6791C0.479883 56.5743 0.918698 55.5146 1.69983 54.7333L54.7332 1.69994C55.5145 0.918811 56.5741 0.479996 57.679 0.479996C58.7838 0.479996 59.8435 0.918811 60.6248 1.69994ZM48.8332 66.5124L54.729 60.6208L64.0707 69.9666H69.9623V64.0749L60.6206 54.7291L66.5123 48.8374L77.4998 59.8208V77.4999H59.8248L48.8373 66.5124H48.8332ZM13.4832 31.1583L1.69566 19.3749C1.30826 18.988 1.00093 18.5284 0.791245 18.0226C0.581561 17.5168 0.473633 16.9746 0.473633 16.427C0.473633 15.8795 0.581561 15.3373 0.791245 14.8314C1.00093 14.3256 1.30826 13.8661 1.69566 13.4791L13.4832 1.69577C14.2645 0.914644 15.3241 0.47583 16.429 0.47583C17.5338 0.47583 18.5935 0.914644 19.3748 1.69577L31.1665 13.4791L25.2665 19.3749L16.429 10.5333L10.5373 16.4291L19.3748 25.2624L13.4832 31.1583Z" fill="black"/>
</svg>
